<mxfile host="app.diagrams.net" modified="2024-06-11T15:59:00.503Z" agent="Mozilla/5.0 (Windows NT 10.0; Win64; x64) AppleWebKit/537.36 (KHTML, like Gecko) Chrome/125.0.0.0 Safari/537.36 Edg/125.0.0.0" etag="mCqG0oRs_rKPZHjXLs48" version="24.5.3" type="device">
  <diagram id="3j9G0F825_cHGCq9AKto" name="Page-2">
    <mxGraphModel dx="2941" dy="-4593" grid="1" gridSize="10" guides="1" tooltips="1" connect="1" arrows="1" fold="1" page="1" pageScale="1" pageWidth="827" pageHeight="1169" math="0" shadow="0">
      <root>
        <mxCell id="0" />
        <mxCell id="1" parent="0" />
        <mxCell id="KhuRC_Y1lqTb-dmsCv6L-72" value="&lt;font style=&quot;font-size: 18px;&quot;&gt;&lt;b&gt;Customer Withdrawal&lt;/b&gt;&lt;/font&gt;" style="text;html=1;align=center;verticalAlign=middle;whiteSpace=wrap;rounded=0;" parent="1" vertex="1">
          <mxGeometry x="213.93" y="6190" width="230" height="30" as="geometry" />
        </mxCell>
        <mxCell id="KhuRC_Y1lqTb-dmsCv6L-73" value="" style="rounded=0;whiteSpace=wrap;html=1;" parent="1" vertex="1">
          <mxGeometry x="-300.07" y="6257" width="1250" height="860" as="geometry" />
        </mxCell>
        <mxCell id="KhuRC_Y1lqTb-dmsCv6L-74" value="" style="rounded=0;whiteSpace=wrap;html=1;fillColor=#f5f5f5;fontColor=#333333;strokeColor=#666666;rotation=-270;" parent="1" vertex="1">
          <mxGeometry x="-620" y="6581.6900000000005" width="857.5" height="213.13" as="geometry" />
        </mxCell>
        <mxCell id="KhuRC_Y1lqTb-dmsCv6L-75" value="&lt;font size=&quot;3&quot;&gt;&lt;b&gt;LOGO&lt;/b&gt;&lt;/font&gt;" style="rhombus;whiteSpace=wrap;html=1;fillColor=#dae8fc;strokeColor=#6c8ebf;" parent="1" vertex="1">
          <mxGeometry x="-289.07" y="6267" width="80" height="80" as="geometry" />
        </mxCell>
        <mxCell id="KhuRC_Y1lqTb-dmsCv6L-76" value="&lt;b&gt;Logout&lt;/b&gt;" style="rounded=0;whiteSpace=wrap;html=1;fillColor=#dae8fc;strokeColor=#6c8ebf;" parent="1" vertex="1">
          <mxGeometry x="779.9300000000001" y="6287" width="90" height="40" as="geometry" />
        </mxCell>
        <mxCell id="KhuRC_Y1lqTb-dmsCv6L-77" value="" style="rounded=0;whiteSpace=wrap;html=1;fillColor=#f5f5f5;fontColor=#f5f5f5;strokeColor=#666666;" parent="1" vertex="1">
          <mxGeometry x="-299.07" y="7017" width="1249" height="100" as="geometry" />
        </mxCell>
        <mxCell id="KhuRC_Y1lqTb-dmsCv6L-78" value="&lt;font style=&quot;font-size: 14px;&quot;&gt;Footer Information&lt;/font&gt;" style="text;html=1;align=center;verticalAlign=middle;whiteSpace=wrap;rounded=0;" parent="1" vertex="1">
          <mxGeometry x="253.93" y="7052" width="126" height="30" as="geometry" />
        </mxCell>
        <mxCell id="KhuRC_Y1lqTb-dmsCv6L-79" value="&lt;b&gt;&lt;font style=&quot;font-size: 18px;&quot;&gt;Welcome Message&lt;/font&gt;&lt;/b&gt;" style="text;html=1;align=center;verticalAlign=middle;whiteSpace=wrap;rounded=0;" parent="1" vertex="1">
          <mxGeometry x="-59.06999999999999" y="6277" width="230" height="30" as="geometry" />
        </mxCell>
        <mxCell id="KhuRC_Y1lqTb-dmsCv6L-80" value="Current user information" style="text;html=1;align=center;verticalAlign=middle;whiteSpace=wrap;rounded=0;" parent="1" vertex="1">
          <mxGeometry x="-39.06999999999999" y="6317" width="160" height="30" as="geometry" />
        </mxCell>
        <mxCell id="KhuRC_Y1lqTb-dmsCv6L-81" value="&lt;font style=&quot;font-size: 14px;&quot;&gt;Menu Options&lt;/font&gt;" style="text;html=1;align=center;verticalAlign=middle;whiteSpace=wrap;rounded=0;" parent="1" vertex="1">
          <mxGeometry x="-279.07" y="6427" width="110" height="30" as="geometry" />
        </mxCell>
        <mxCell id="KhuRC_Y1lqTb-dmsCv6L-82" value="&lt;font style=&quot;font-size: 14px;&quot;&gt;Dashboard&lt;/font&gt;" style="text;html=1;align=center;verticalAlign=middle;whiteSpace=wrap;rounded=0;" parent="1" vertex="1">
          <mxGeometry x="-294.07" y="6497" width="110" height="30" as="geometry" />
        </mxCell>
        <mxCell id="KhuRC_Y1lqTb-dmsCv6L-83" value="&lt;font style=&quot;font-size: 14px;&quot;&gt;Transactions&lt;/font&gt;" style="text;html=1;align=center;verticalAlign=middle;whiteSpace=wrap;rounded=0;" parent="1" vertex="1">
          <mxGeometry x="-289.07" y="6537" width="110" height="30" as="geometry" />
        </mxCell>
        <mxCell id="KhuRC_Y1lqTb-dmsCv6L-84" style="edgeStyle=orthogonalEdgeStyle;rounded=0;orthogonalLoop=1;jettySize=auto;html=1;exitX=0.5;exitY=1;exitDx=0;exitDy=0;" parent="1" edge="1">
          <mxGeometry relative="1" as="geometry">
            <mxPoint x="-254.07" y="6627" as="sourcePoint" />
            <mxPoint x="-254.07" y="6627" as="targetPoint" />
          </mxGeometry>
        </mxCell>
        <mxCell id="KhuRC_Y1lqTb-dmsCv6L-85" value="" style="endArrow=none;html=1;rounded=0;" parent="1" edge="1">
          <mxGeometry width="50" height="50" relative="1" as="geometry">
            <mxPoint x="-159.07" y="6477" as="sourcePoint" />
            <mxPoint x="-279.07" y="6477" as="targetPoint" />
          </mxGeometry>
        </mxCell>
        <mxCell id="KhuRC_Y1lqTb-dmsCv6L-86" value="&lt;font style=&quot;font-size: 14px;&quot;&gt;Amount:&lt;/font&gt;" style="text;html=1;align=center;verticalAlign=middle;whiteSpace=wrap;rounded=0;" parent="1" vertex="1">
          <mxGeometry x="-39.06999999999999" y="6477" width="60" height="30" as="geometry" />
        </mxCell>
        <mxCell id="KhuRC_Y1lqTb-dmsCv6L-87" value="" style="rounded=0;whiteSpace=wrap;html=1;" parent="1" vertex="1">
          <mxGeometry x="-39.06999999999999" y="6562" width="170" height="35" as="geometry" />
        </mxCell>
        <mxCell id="KhuRC_Y1lqTb-dmsCv6L-88" value="&lt;font style=&quot;font-size: 14px;&quot;&gt;Description:&lt;/font&gt;" style="text;html=1;align=center;verticalAlign=middle;whiteSpace=wrap;rounded=0;" parent="1" vertex="1">
          <mxGeometry x="-30.069999999999993" y="6647" width="60" height="30" as="geometry" />
        </mxCell>
        <mxCell id="KhuRC_Y1lqTb-dmsCv6L-89" value="" style="rounded=0;whiteSpace=wrap;html=1;" parent="1" vertex="1">
          <mxGeometry x="-40.06999999999999" y="6737" width="170" height="35" as="geometry" />
        </mxCell>
        <mxCell id="KhuRC_Y1lqTb-dmsCv6L-90" value="&lt;font style=&quot;font-size: 24px;&quot;&gt;WITHDRAW&lt;/font&gt;" style="text;html=1;align=center;verticalAlign=middle;whiteSpace=wrap;rounded=0;" parent="1" vertex="1">
          <mxGeometry x="356.93" y="6377" width="60" height="30" as="geometry" />
        </mxCell>
        <mxCell id="KhuRC_Y1lqTb-dmsCv6L-97" value="" style="rounded=0;whiteSpace=wrap;html=1;" parent="1" vertex="1">
          <mxGeometry x="475.93" y="6449.5" width="370" height="260" as="geometry" />
        </mxCell>
        <mxCell id="KhuRC_Y1lqTb-dmsCv6L-98" value="" style="endArrow=none;html=1;rounded=0;entryX=1;entryY=0;entryDx=0;entryDy=0;exitX=0;exitY=1;exitDx=0;exitDy=0;" parent="1" source="KhuRC_Y1lqTb-dmsCv6L-97" target="KhuRC_Y1lqTb-dmsCv6L-97" edge="1">
          <mxGeometry width="50" height="50" relative="1" as="geometry">
            <mxPoint x="300.93" y="5637" as="sourcePoint" />
            <mxPoint x="350.93" y="5587" as="targetPoint" />
          </mxGeometry>
        </mxCell>
        <mxCell id="KhuRC_Y1lqTb-dmsCv6L-99" value="" style="endArrow=none;html=1;rounded=0;entryX=1;entryY=1;entryDx=0;entryDy=0;exitX=0;exitY=0;exitDx=0;exitDy=0;" parent="1" source="KhuRC_Y1lqTb-dmsCv6L-97" target="KhuRC_Y1lqTb-dmsCv6L-97" edge="1">
          <mxGeometry width="50" height="50" relative="1" as="geometry">
            <mxPoint x="300.93" y="5637" as="sourcePoint" />
            <mxPoint x="350.93" y="5587" as="targetPoint" />
          </mxGeometry>
        </mxCell>
        <mxCell id="KhuRC_Y1lqTb-dmsCv6L-100" value="image" style="text;html=1;align=center;verticalAlign=middle;whiteSpace=wrap;rounded=0;" parent="1" vertex="1">
          <mxGeometry x="630.9300000000001" y="6517" width="60" height="30" as="geometry" />
        </mxCell>
        <mxCell id="KhuRC_Y1lqTb-dmsCv6L-101" value="" style="rounded=0;whiteSpace=wrap;html=1;" parent="1" vertex="1">
          <mxGeometry x="475.93" y="6747" width="374.07" height="230" as="geometry" />
        </mxCell>
        <mxCell id="KhuRC_Y1lqTb-dmsCv6L-102" value="&lt;span style=&quot;font-size: 14px;&quot;&gt;Balance information&lt;/span&gt;" style="text;html=1;align=center;verticalAlign=middle;whiteSpace=wrap;rounded=0;" parent="1" vertex="1">
          <mxGeometry x="580.9300000000001" y="6847" width="180" height="30" as="geometry" />
        </mxCell>
        <mxCell id="4bFOf3q3WvnAby6B3AYO-43" value="&lt;h1 style=&quot;margin-top: 0px;&quot;&gt;A&lt;/h1&gt;" style="text;html=1;whiteSpace=wrap;overflow=hidden;rounded=0;align=center;" parent="1" vertex="1">
          <mxGeometry x="369.92999999999995" y="6687" width="30" height="40" as="geometry" />
        </mxCell>
        <mxCell id="4bFOf3q3WvnAby6B3AYO-44" value="&lt;h1 style=&quot;margin-top: 0px;&quot;&gt;B&lt;/h1&gt;" style="text;html=1;whiteSpace=wrap;overflow=hidden;rounded=0;align=center;" parent="1" vertex="1">
          <mxGeometry x="-150" y="6287" width="30" height="40" as="geometry" />
        </mxCell>
        <mxCell id="4bFOf3q3WvnAby6B3AYO-47" value="&lt;h1 style=&quot;margin-top: 0px;&quot;&gt;E&lt;/h1&gt;" style="text;html=1;whiteSpace=wrap;overflow=hidden;rounded=0;align=center;" parent="1" vertex="1">
          <mxGeometry x="800.9300000000001" y="6457" width="30" height="40" as="geometry" />
        </mxCell>
        <mxCell id="4bFOf3q3WvnAby6B3AYO-48" value="&lt;h1 style=&quot;margin-top: 0px;&quot;&gt;F&lt;/h1&gt;" style="text;html=1;whiteSpace=wrap;overflow=hidden;rounded=0;align=center;" parent="1" vertex="1">
          <mxGeometry x="797" y="6767" width="30" height="40" as="geometry" />
        </mxCell>
        <mxCell id="4bFOf3q3WvnAby6B3AYO-50" value="&lt;h1 style=&quot;margin-top: 0px;&quot;&gt;H&lt;/h1&gt;" style="text;html=1;whiteSpace=wrap;overflow=hidden;rounded=0;align=center;" parent="1" vertex="1">
          <mxGeometry x="369.93000000000006" y="6267" width="30" height="40" as="geometry" />
        </mxCell>
        <mxCell id="4bFOf3q3WvnAby6B3AYO-55" value="&lt;h1 style=&quot;margin-top: 0px;&quot;&gt;C&lt;/h1&gt;" style="text;html=1;whiteSpace=wrap;overflow=hidden;rounded=0;align=center;" parent="1" vertex="1">
          <mxGeometry x="405.93000000000006" y="7027" width="30" height="40" as="geometry" />
        </mxCell>
      </root>
    </mxGraphModel>
  </diagram>
</mxfile>
